HIERARCHY
ROOT joint_Root
{
	OFFSET 0.0 0.0 0.0
	CHANNELS 6 Xposition Yposition Zposition Zrotation Xrotation Yrotation 
	JOINT Hips
	{
		OFFSET -0.726466 93.3139 -2.00062
		CHANNELS 6 Xposition Yposition Zposition Zrotation Xrotation Yrotation 
		JOINT Spine
		{
			OFFSET 15.7357 0.0 0.0
			CHANNELS 6 Xposition Yposition Zposition Zrotation Xrotation Yrotation 
			JOINT Chest
			{
				OFFSET 8.98455 -0.406207 0.0
				CHANNELS 6 Xposition Yposition Zposition Zrotation Xrotation Yrotation 
				JOINT Neck
				{
					OFFSET 16.3773 0.0 0.0
					CHANNELS 6 Xposition Yposition Zposition Zrotation Xrotation Yrotation 
					JOINT Head
					{
						OFFSET 6.45672 0.0 0.0
						CHANNELS 6 Xposition Yposition Zposition Zrotation Xrotation Yrotation 
						End Site
						{
							OFFSET 0.0 0.0 0.0
						}
					}
				}
				JOINT Shoulder_L
				{
					OFFSET 12.9942 -0.242716 4.98039
					CHANNELS 6 Xposition Yposition Zposition Zrotation Xrotation Yrotation 
					JOINT UpperArm_L
					{
						OFFSET 5.34809 0.0 0.0
						CHANNELS 6 Xposition Yposition Zposition Zrotation Xrotation Yrotation 
						JOINT LowerArm_L
						{
							OFFSET 24.3286 1.87007e-05 0.0
							CHANNELS 6 Xposition Yposition Zposition Zrotation Xrotation Yrotation 
							JOINT Hand_L
							{
								OFFSET 22.2916 0.0 0.0
								CHANNELS 6 Xposition Yposition Zposition Zrotation Xrotation Yrotation 
								End Site
								{
									OFFSET 0.0 0.0 0.0
								}
							}
						}
					}
				}
				JOINT Shoulder_R
				{
					OFFSET 12.9945 -0.242716 -4.98039
					CHANNELS 6 Xposition Yposition Zposition Zrotation Xrotation Yrotation 
					JOINT UpperArm_R
					{
						OFFSET -5.34813 0.0 0.0
						CHANNELS 6 Xposition Yposition Zposition Zrotation Xrotation Yrotation 
						JOINT LowerArm_R
						{
							OFFSET -24.3289 0.000322201 0.0
							CHANNELS 6 Xposition Yposition Zposition Zrotation Xrotation Yrotation 
							JOINT Hand_R
							{
								OFFSET -22.2915 -0.000108084 0.0
								CHANNELS 6 Xposition Yposition Zposition Zrotation Xrotation Yrotation 
								End Site
								{
									OFFSET 0.0 0.0 0.0
								}
							}
						}
					}
				}
			}
		}
		JOINT UpperLeg_L
		{
			OFFSET -2.19248 -6.46944 0.0
			CHANNELS 6 Xposition Yposition Zposition Zrotation Xrotation Yrotation 
			JOINT LowerLeg_L
			{
				OFFSET 39.0811 0.0 -1.23785e-05
				CHANNELS 6 Xposition Yposition Zposition Zrotation Xrotation Yrotation 
				JOINT Foot_L
				{
					OFFSET 40.9854 0.0 -1.26872e-05
					CHANNELS 6 Xposition Yposition Zposition Zrotation Xrotation Yrotation 
					JOINT Toes_L
					{
						OFFSET 11.7543 0.0 0.0
						CHANNELS 6 Xposition Yposition Zposition Zrotation Xrotation Yrotation 
						End Site
						{
							OFFSET 0.0 0.0 0.0
						}
					}
				}
			}
		}
		JOINT UpperLeg_R
		{
			OFFSET -2.19251 6.46944 0.0
			CHANNELS 6 Xposition Yposition Zposition Zrotation Xrotation Yrotation 
			JOINT LowerLeg_R
			{
				OFFSET -39.0811 -0.00228153 -0.0401928
				CHANNELS 6 Xposition Yposition Zposition Zrotation Xrotation Yrotation 
				JOINT Foot_R
				{
					OFFSET -40.9854 0.0 0.0
					CHANNELS 6 Xposition Yposition Zposition Zrotation Xrotation Yrotation 
					JOINT Toes_R
					{
						OFFSET -11.7543 0.0 0.0
						CHANNELS 6 Xposition Yposition Zposition Zrotation Xrotation Yrotation 
						End Site
						{
							OFFSET 0.0 0.0 0.0
						}
					}
				}
			}
		}
	}
}
MOTION
Frames:	9
Frame Time:	0.0333333
0.000000 0.000000 0.000000 0.000000 0.000000 -0.000000 -7.763400 89.114400 41.151200 -88.759000 10.909100 178.081000 15.735700 0.000005 -0.000001 118.767000 81.521100 -119.429000 8.984550 -0.406207 -0.000000 7.201680 8.135200 -1.837480 16.377300 -0.000001 -0.000001 1.990380 0.748416 -1.238010 6.456720 -0.000001 -0.000000 -0.984193 -3.966200 1.099390 12.994200 -0.242716 4.980390 -87.320600 -5.869130 -65.412600 5.348090 -0.000007 -0.000001 -74.666400 26.594400 16.193100 24.328600 0.000019 0.000005 -5.785750 -0.388263 -86.177600 22.291600 -0.000001 0.000005 6.002320 5.672670 -17.776900 12.994500 -0.242716 -4.980390 88.942700 3.249900 -71.969900 -5.348130 -0.000001 -0.000004 -60.465200 35.907200 -18.148000 -24.328900 0.000322 -0.000009 -8.873090 0.218436 -91.386500 -22.291500 -0.000108 -0.000004 16.885700 5.606100 -11.710100 -2.192480 -6.469440 -0.000000 178.023000 -7.562780 -31.508400 39.081100 -0.000007 -0.000012 0.173448 -0.261026 33.603400 40.985400 -0.000006 -0.000013 3.131540 -7.309220 -58.710200 11.754300 -0.000000 0.000003 -0.010388 -0.106524 -20.917400 -2.192510 6.469440 -0.000001 174.663000 6.258230 -176.475000 -39.081100 -0.002282 -0.040193 0.164313 -0.070714 66.309100 -40.985400 0.000008 0.000006 11.933700 -6.747700 -35.648800 -11.754300 -0.000006 -0.000006 -0.024043 -0.188736 -24.292600
0.000000 0.000000 0.000000 0.000000 0.000000 -0.000000 -7.974280 85.986000 32.806600 -91.512400 8.179660 179.056000 15.735700 0.000005 -0.000001 106.849000 81.588800 -108.532000 8.984550 -0.406207 -0.000000 8.430440 4.843770 -3.720330 16.377300 -0.000001 -0.000001 -0.232930 -0.101664 -0.184752 6.456720 -0.000001 -0.000000 -1.075650 -2.439970 1.127760 12.994200 -0.242716 4.980390 -88.649100 -3.203750 -67.137400 5.348090 -0.000007 -0.000001 -70.066800 25.982000 8.907300 24.328600 0.000019 0.000005 -3.560800 -0.135072 -87.834200 22.291600 -0.000001 0.000005 7.279750 5.681540 -20.021000 12.994500 -0.242716 -4.980390 88.012700 5.826830 -71.135800 -5.348130 -0.000001 -0.000004 -61.722000 35.298700 -12.397800 -24.328900 0.000322 -0.000009 -6.864330 -0.701852 -84.156700 -22.291500 -0.000108 -0.000004 15.604200 5.611390 -12.052700 -2.192480 -6.469440 -0.000000 175.129000 -3.940520 -33.593200 39.081100 -0.000007 -0.000012 -0.253559 0.221838 48.818000 40.985400 -0.000006 -0.000013 2.397130 -6.718170 -66.988200 11.754300 -0.000000 0.000003 -0.001585 -0.023397 -17.528200 -2.192510 6.469440 -0.000001 174.655000 5.714050 175.525000 -39.081100 -0.002282 -0.040193 -0.022804 0.002522 84.306400 -40.985400 0.000008 0.000006 13.592000 -6.574320 -37.739100 -11.754300 -0.000006 -0.000006 -0.023366 -0.185266 -24.149300
0.000000 0.000000 0.000000 0.000000 0.000000 -0.000000 -8.277480 83.782900 24.855000 -93.561800 6.129230 -179.884000 15.735700 0.000005 -0.000001 97.371700 81.117900 -99.838200 8.984550 -0.406207 -0.000000 9.909730 2.219030 -5.122380 16.377300 -0.000001 -0.000001 -1.050060 -0.680202 0.371443 6.456720 -0.000001 -0.000000 -2.101100 -1.555500 1.807440 12.994200 -0.242716 4.980390 -89.551300 -1.125950 -68.274800 5.348090 -0.000007 -0.000001 -63.654500 28.833300 -4.214140 24.328600 0.000019 0.000005 -3.235260 -0.134114 -87.626500 22.291600 -0.000001 0.000005 8.985450 5.677810 -23.412000 12.994500 -0.242716 -4.980390 87.494200 7.041950 -70.356000 -5.348130 -0.000001 -0.000004 -65.853700 32.831200 -6.458770 -24.328900 0.000322 -0.000009 -4.875700 -1.667490 -71.120900 -22.291500 -0.000108 -0.000004 19.268600 5.616470 -12.470300 -2.192480 -6.469440 -0.000000 172.227000 -3.864960 -30.701300 39.081100 -0.000007 -0.000012 -0.538416 0.353133 56.741400 40.985400 -0.000006 -0.000013 2.925810 -6.065700 -76.926100 11.754300 -0.000000 0.000003 -0.000051 -0.000577 -16.599900 -2.192510 6.469440 -0.000001 175.251000 4.847060 165.484000 -39.081100 -0.002282 -0.040193 -0.316800 -0.052256 99.255600 -40.985400 0.000008 0.000006 14.470700 -6.502090 -39.591900 -11.754300 -0.000006 -0.000006 -0.023724 -0.187107 -24.225300
0.000000 0.000000 0.000000 0.000000 0.000000 -0.000000 -8.239740 83.074100 17.159200 -92.724500 4.327060 179.380000 15.735700 0.000005 -0.000001 91.184600 81.211800 -93.228800 8.984550 -0.406207 -0.000000 9.815870 0.324568 -4.113430 16.377300 -0.000001 -0.000001 -0.654959 -1.046740 0.041815 6.456720 -0.000001 -0.000000 -1.833720 -0.834416 2.321750 12.994200 -0.242716 4.980390 -89.606700 -1.044530 -69.353000 5.348090 -0.000007 -0.000001 -58.715100 31.017900 -18.468000 24.328600 0.000019 0.000005 1.009660 0.025309 -88.412700 22.291600 -0.000001 0.000005 6.957040 5.672130 -24.576100 12.994500 -0.242716 -4.980390 87.255500 7.368190 -69.504100 -5.348130 -0.000001 -0.000004 -68.702900 30.809700 1.084410 -24.328900 0.000322 -0.000009 -6.370130 -2.865210 -65.860600 -22.291500 -0.000108 -0.000004 24.573800 5.618800 -12.572400 -2.192480 -6.469440 -0.000000 172.978000 -4.542280 -25.813800 39.081100 -0.000007 -0.000012 -0.669519 0.413639 58.293200 40.985400 -0.000006 -0.000013 3.612830 -4.498930 -83.913800 11.754300 -0.000000 0.000003 -0.000192 -0.001786 -16.645000 -2.192510 6.469440 -0.000001 178.662000 4.870390 153.798000 -39.081100 -0.002282 -0.040193 -0.552314 -0.171208 107.117000 -40.985400 0.000008 0.000006 16.432300 -9.482660 -41.403400 -11.754300 -0.000006 -0.000006 -0.025337 -0.195237 -24.561300
0.000000 0.000000 0.000000 0.000000 0.000000 -0.000000 -7.795290 84.127000 9.009950 -90.139700 0.724773 178.547000 15.735700 0.000005 -0.000001 81.724200 81.233900 -82.304700 8.984550 -0.406207 -0.000000 9.577910 -2.517960 -0.949278 16.377300 -0.000001 -0.000001 -0.212453 -1.594800 -0.755906 6.456720 -0.000001 -0.000000 -1.083710 1.063740 1.374010 12.994200 -0.242716 4.980390 -88.945500 -3.083950 -71.105200 5.348090 -0.000007 -0.000001 -59.507700 30.958300 -26.800100 24.328600 0.000019 0.000005 5.431360 -0.303228 -93.194300 22.291600 -0.000001 0.000005 5.815970 5.677660 -23.265700 12.994500 -0.242716 -4.980390 87.404700 6.262690 -67.432800 -5.348130 -0.000001 -0.000004 -69.459200 32.087200 7.880200 -24.328900 0.000322 -0.000009 -12.590500 -4.486880 -70.692300 -22.291500 -0.000108 -0.000004 22.091200 5.628520 -13.269000 -2.192480 -6.469440 -0.000000 176.598000 -3.408370 -17.120400 39.081100 -0.000007 -0.000012 -0.713031 0.544085 52.656200 40.985400 -0.000006 -0.000013 4.013740 -2.228420 -87.448800 11.754300 -0.000000 0.000003 -0.000265 -0.002349 -16.665400 -2.192510 6.469440 -0.000001 -176.504000 6.385750 145.127000 -39.081100 -0.002282 -0.040193 -0.509316 -0.147019 105.992000 -40.985400 0.000008 0.000006 15.769400 -13.883700 -46.095500 -11.754300 -0.000006 -0.000006 -0.024254 -0.189807 -24.336900
0.000000 0.000000 0.000000 0.000000 0.000000 -0.000000 -7.066240 86.861900 0.350936 -86.417200 -2.678470 177.546000 15.735700 0.000005 -0.000001 69.938600 81.073900 -68.650500 8.984550 -0.406207 -0.000000 9.111020 -6.076230 3.060620 16.377300 -0.000001 -0.000001 0.495591 -1.285810 -1.473840 6.456720 -0.000001 -0.000000 -0.873983 3.977400 0.051234 12.994200 -0.242716 4.980390 -88.434600 -4.783710 -71.854200 5.348090 -0.000007 -0.000001 -61.866700 30.642200 -29.368700 24.328600 0.000019 0.000005 0.323737 -0.048693 -99.444100 22.291600 -0.000001 0.000005 7.678490 5.681550 -20.926500 12.994500 -0.242716 -4.980390 87.839800 4.842390 -65.919600 -5.348130 -0.000001 -0.000004 -69.668900 34.953300 12.269600 -24.328900 0.000322 -0.000009 -9.345000 -2.498150 -75.181000 -22.291500 -0.000108 -0.000004 19.788800 5.636340 -13.821400 -2.192480 -6.469440 -0.000000 -178.802000 -1.639330 -6.923760 39.081100 -0.000007 -0.000012 0.077283 -0.088159 41.238000 40.985400 -0.000006 -0.000013 7.876250 -1.498970 -82.311000 11.754300 -0.000000 0.000003 -2.628220 -3.150080 -19.887700 -2.192510 6.469440 -0.000001 -171.271000 6.673790 140.074000 -39.081100 -0.002282 -0.040193 -0.328034 -0.036629 96.292900 -40.985400 0.000008 0.000006 13.207300 -16.051400 -50.910500 -11.754300 -0.000006 -0.000006 -0.022155 -0.178945 -23.888400
0.000000 0.000000 0.000000 0.000000 0.000000 -0.000000 -6.426560 90.357600 -8.187830 -83.482400 -4.688260 175.725000 15.735700 0.000005 -0.000001 62.053800 81.030300 -59.245800 8.984550 -0.406207 -0.000000 8.360300 -8.354960 6.230280 16.377300 -0.000001 -0.000001 0.561216 -1.031360 -1.708840 6.456720 -0.000001 -0.000000 -0.932298 5.734820 -0.584133 12.994200 -0.242716 4.980390 -88.088700 -5.952680 -72.162700 5.348090 -0.000007 -0.000001 -64.446500 30.671000 -29.901100 24.328600 0.000019 0.000005 -2.402940 0.640303 -104.925000 22.291600 -0.000001 0.000005 8.868190 5.679550 -19.430200 12.994500 -0.242716 -4.980390 88.181200 3.856370 -64.722900 -5.348130 -0.000001 -0.000004 -69.859600 36.686200 15.421700 -24.328900 0.000322 -0.000009 -6.692220 -1.288580 -79.151800 -22.291500 -0.000108 -0.000004 17.294700 5.636910 -13.863300 -2.192480 -6.469440 -0.000000 -174.362000 -0.945821 -0.730560 39.081100 -0.000007 -0.000012 0.022188 -0.035500 32.005500 40.985400 -0.000006 -0.000013 6.552620 2.066730 -67.032800 11.754300 -0.000000 0.000003 -0.067124 -0.354272 -31.235200 -2.192510 6.469440 -0.000001 -167.991000 5.325920 137.950000 -39.081100 -0.002282 -0.040193 -0.137641 0.024651 80.048900 -40.985400 0.000008 0.000006 11.426900 -15.092200 -55.243000 -11.754300 -0.000006 -0.000006 -0.024645 -0.191780 -24.418400
0.000000 0.000000 0.000000 0.000000 0.000000 -0.000000 -6.072290 93.713500 -16.602500 -82.634400 -5.888760 174.153000 15.735700 0.000005 -0.000001 56.470700 81.033200 -52.903400 8.984550 -0.406207 -0.000000 7.588180 -9.874280 7.797970 16.377300 -0.000001 -0.000001 0.716996 -0.862826 -1.685990 6.456720 -0.000001 -0.000000 -1.371100 6.342510 -0.573308 12.994200 -0.242716 4.980390 -87.864900 -6.630470 -72.105600 5.348090 -0.000007 -0.000001 -66.930300 31.310500 -29.255200 24.328600 0.000019 0.000005 -1.152480 0.387894 -108.620000 22.291600 -0.000001 0.000005 7.784750 5.675350 -18.256300 12.994500 -0.242716 -4.980390 88.749300 2.573910 -64.071900 -5.348130 -0.000001 -0.000004 -71.433100 36.823100 18.066300 -24.328900 0.000322 -0.000009 -6.497680 -0.946070 -81.748700 -22.291500 -0.000108 -0.000004 16.004900 5.629810 -13.319600 -2.192480 -6.469440 -0.000000 -171.031000 -4.737570 3.071650 39.081100 -0.000007 -0.000012 0.006630 -0.014179 25.059000 40.985400 -0.000006 -0.000013 3.706680 8.484830 -47.471700 11.754300 -0.000000 0.000003 -0.144728 -0.544234 -39.561900 -2.192510 6.469440 -0.000001 -167.714000 4.583070 139.907000 -39.081100 -0.002282 -0.040193 -0.012921 0.010015 58.166700 -40.985400 0.000008 0.000006 9.167220 -11.231200 -59.073200 -11.754300 -0.000006 -0.000006 -0.024323 -0.190153 -24.351200
0.000000 0.000000 0.000000 0.000000 0.000000 -0.000000 -6.013380 95.531500 -25.292600 -84.345400 -6.183730 173.404000 15.735700 0.000005 -0.000001 52.894700 81.090800 -49.586100 8.984550 -0.406207 -0.000000 6.857690 -10.742000 7.271050 16.377300 -0.000001 -0.000001 1.089880 -1.010380 -1.562620 6.456720 -0.000001 -0.000000 -1.905400 6.237240 -0.123283 12.994200 -0.242716 4.980390 -87.570800 -7.556700 -72.120500 5.348090 -0.000007 -0.000001 -69.276700 32.597800 -28.018200 24.328600 0.000019 0.000005 -0.936726 0.350451 -110.508000 22.291600 -0.000001 0.000005 6.231430 5.664130 -16.536100 12.994500 -0.242716 -4.980390 89.669100 0.672809 -63.803600 -5.348130 -0.000001 -0.000004 -74.497600 35.536900 20.641500 -24.328900 0.000322 -0.000009 -6.079170 -0.680969 -83.628900 -22.291500 -0.000108 -0.000004 15.582300 5.616370 -12.368800 -2.192480 -6.469440 -0.000000 -170.334000 -7.017680 6.114540 39.081100 -0.000007 -0.000012 0.028138 -0.066556 22.917000 40.985400 -0.000006 -0.000013 -0.831651 10.263800 -36.564200 11.754300 -0.000000 0.000003 -0.008558 -0.092537 -20.345600 -2.192510 6.469440 -0.000001 -170.153000 5.597960 145.090000 -39.081100 -0.002282 -0.040193 0.019320 -0.023289 34.536900 -40.985400 0.000008 0.000006 5.046520 -3.104380 -62.471400 -11.754300 -0.000006 -0.000006 -0.026168 -0.199333 -24.730800
